<svg xmlns="http://www.w3.org/2000/svg" xmlns:xlink="http://www.w3.org/1999/xlink" width="500" zoomAndPan="magnify" viewBox="0 0 375 149.999998" height="200" preserveAspectRatio="xMidYMid meet" version="1.0"><defs><g/><clipPath id="0f76fe3663"><path d="M 30.933594 42.21875 L 243.113281 42.21875 L 243.113281 52.191406 L 30.933594 52.191406 Z M 30.933594 42.21875 " clip-rule="nonzero"/></clipPath><clipPath id="15759af878"><path d="M 243.113281 97.09375 L 353.71875 97.09375 L 353.71875 106.925781 L 243.113281 106.925781 Z M 243.113281 97.09375 " clip-rule="nonzero"/></clipPath></defs><rect x="-37.5" width="450" fill="#ffffff" y="-15" height="179.999997" fill-opacity="1"/><rect x="-37.5" width="450" fill="#1e966b" y="-15" height="179.999997" fill-opacity="1"/><g clip-path="url(#0f76fe3663)"><path fill="#ffffff" d="M 30.933594 42.21875 L 243.113281 42.21875 L 243.113281 52.191406 L 30.933594 52.191406 Z M 30.933594 42.21875 " fill-opacity="1" fill-rule="nonzero"/></g><g clip-path="url(#15759af878)"><path fill="#ffffff" d="M 243.113281 97.09375 L 353.714844 97.09375 L 353.714844 106.925781 L 243.113281 106.925781 Z M 243.113281 97.09375 " fill-opacity="1" fill-rule="nonzero"/></g><g fill="#ffffff" fill-opacity="1"><g transform="translate(27.191636, 105.010793)"><g><path d="M 4.796875 0 L 4.796875 -39.96875 L 20.609375 -39.96875 C 24.835938 -39.96875 28.53125 -39.128906 31.6875 -37.453125 C 34.84375 -35.773438 37.296875 -33.429688 39.046875 -30.421875 C 40.796875 -27.421875 41.671875 -23.941406 41.671875 -19.984375 C 41.671875 -15.984375 40.796875 -12.488281 39.046875 -9.5 C 37.296875 -6.519531 34.84375 -4.191406 31.6875 -2.515625 C 28.53125 -0.835938 24.835938 0 20.609375 0 Z M 13.875 -8.328125 L 20.4375 -8.328125 C 22.800781 -8.328125 24.875 -8.8125 26.65625 -9.78125 C 28.445312 -10.757812 29.847656 -12.125 30.859375 -13.875 C 31.867188 -15.625 32.375 -17.660156 32.375 -19.984375 C 32.375 -22.335938 31.867188 -24.378906 30.859375 -26.109375 C 29.847656 -27.847656 28.4375 -29.203125 26.625 -30.171875 C 24.820312 -31.140625 22.722656 -31.625 20.328125 -31.625 L 13.875 -31.625 Z M 13.875 -8.328125 "/></g></g></g><g fill="#ffffff" fill-opacity="1"><g transform="translate(83.089104, 105.010793)"><g><path d="M 4.796875 0 L 4.796875 -39.96875 L 13.875 -39.96875 L 13.875 0 Z M 4.796875 0 "/></g></g></g><g fill="#ffffff" fill-opacity="1"><g transform="translate(113.579154, 105.010793)"><g><path d="M 15.875 0 L 0.515625 -39.96875 L 10.28125 -39.96875 L 15.59375 -25.75 L 20.375 -13.078125 L 30.4375 -39.96875 L 40.140625 -39.96875 L 24.78125 0 Z M 15.875 0 "/></g></g></g><g fill="#ffffff" fill-opacity="1"><g transform="translate(166.050894, 105.010793)"><g><path d="M 15.875 0 L 0.515625 -39.96875 L 10.28125 -39.96875 L 15.59375 -25.75 L 20.375 -13.078125 L 30.4375 -39.96875 L 40.140625 -39.96875 L 24.78125 0 Z M 15.875 0 "/></g></g></g><g fill="#ffffff" fill-opacity="1"><g transform="translate(218.522634, 105.010793)"><g><path d="M 4.796875 0 L 4.796875 -39.96875 L 13.875 -39.96875 L 13.875 0 Z M 4.796875 0 "/></g></g></g><g fill="#ffffff" fill-opacity="1"><g transform="translate(253.09474, 80.855755)"><g><path d="M 21.125 0.796875 C 17.65625 0.796875 14.675781 0.101562 12.1875 -1.28125 C 9.695312 -2.675781 7.773438 -4.65625 6.421875 -7.21875 C 5.066406 -9.789062 4.390625 -12.863281 4.390625 -16.4375 L 4.390625 -39.96875 L 13.46875 -39.96875 L 13.46875 -17.078125 C 13.46875 -10.910156 16.019531 -7.828125 21.125 -7.828125 C 26.226562 -7.828125 28.78125 -10.910156 28.78125 -17.078125 L 28.78125 -39.96875 L 37.859375 -39.96875 L 37.859375 -16.4375 C 37.859375 -12.863281 37.179688 -9.789062 35.828125 -7.21875 C 34.472656 -4.65625 32.546875 -2.675781 30.046875 -1.28125 C 27.554688 0.101562 24.582031 0.796875 21.125 0.796875 Z M 21.125 0.796875 "/></g></g></g><g fill="#ffffff" fill-opacity="1"><g transform="translate(307.165159, 80.855755)"><g><path d="M 4.796875 0 L 4.796875 -39.96875 L 20.4375 -39.96875 C 23.675781 -39.96875 26.472656 -39.375 28.828125 -38.1875 C 31.191406 -37.007812 33.03125 -35.335938 34.34375 -33.171875 C 35.65625 -31.003906 36.3125 -28.453125 36.3125 -25.515625 C 36.3125 -22.628906 35.65625 -20.097656 34.34375 -17.921875 C 33.03125 -15.753906 31.191406 -14.082031 28.828125 -12.90625 C 26.472656 -11.726562 23.675781 -11.140625 20.4375 -11.140625 L 13.875 -11.140625 L 13.875 0 Z M 13.8125 -18.953125 L 19.703125 -18.953125 C 22.054688 -18.953125 23.867188 -19.515625 25.140625 -20.640625 C 26.421875 -21.765625 27.0625 -23.375 27.0625 -25.46875 C 27.0625 -27.5625 26.421875 -29.175781 25.140625 -30.3125 C 23.867188 -31.457031 22.054688 -32.03125 19.703125 -32.03125 L 13.8125 -32.03125 Z M 13.8125 -18.953125 "/></g></g></g></svg>